<svg xmlns="http://www.w3.org/2000/svg" xmlns:xlink="http://www.w3.org/1999/xlink" version="1.1" id="Layer_1" x="0px" y="0px" width="100px" height="100px" viewBox="0 0 100 100" enable-background="new 0 0 100 100" xml:space="preserve">
<path fill="#000000" d="M84.006,45.312h-0.002h-0.001h-2.809V42.5c0-6.834-8.648-12.188-19.688-12.188h-2.908  c-0.436-2.137-2.327-3.75-4.592-3.75h-7.5c-2.265,0-4.157,1.613-4.592,3.75h-2.908c-11.04,0-19.688,5.354-19.688,12.188v2.812  h-2.812c-1.551,0-2.812,1.262-2.812,2.812s1.262,2.812,2.812,2.812h2.812v15.938c0,0.008,0.003,0.011,0.003,0.019  c0.002,1.747,0.683,3.388,1.917,4.623c1.24,1.237,2.887,1.921,4.642,1.921h48.75c3.618,0,6.562-2.944,6.562-6.562V50.938h2.809  h0.001h0.002c1.551,0,2.812-1.262,2.812-2.812S85.557,45.312,84.006,45.312z M46.506,28.438h7.5c1.221,0,2.252,0.785,2.64,1.875  h-12.78C44.254,29.223,45.285,28.438,46.506,28.438z M39.006,32.188h22.5c9.274,0,16.908,4.127,17.73,9.375h-57.96  C22.099,36.314,29.732,32.188,39.006,32.188z M16.506,49.062c-0.516,0-0.938-0.421-0.938-0.938s0.421-0.938,0.938-0.938h2.812v1.875  H16.506z M74.631,71.562h-48.75c-1.252,0-2.43-0.487-3.316-1.371c-0.885-0.885-1.37-2.062-1.37-3.316  c0-0.004-0.002-0.006-0.002-0.01V43.438h58.125v2.794c0,0.008-0.003,0.011-0.003,0.019s0.003,0.011,0.003,0.019v3.713  c0,0.008-0.003,0.011-0.003,0.019s0.003,0.011,0.003,0.019v16.856C79.319,69.461,77.217,71.562,74.631,71.562z M84.006,49.062  h-0.002h-0.001h-2.809v-1.875h2.809h0.001h0.002c0.516,0,0.938,0.421,0.938,0.938S84.522,49.062,84.006,49.062z"/>
<path fill="#000000" d="M42.756,52.812c0-0.238-0.026-0.465-0.062-0.687l-2.985-1.492c-0.425,0.515-0.703,1.292-0.703,2.179  c0,1.553,0.838,2.812,1.875,2.812S42.756,54.365,42.756,52.812z"/>
<path fill="#000000" d="M57.818,52.126c-0.036,0.222-0.062,0.448-0.062,0.687c0,1.553,0.838,2.812,1.875,2.812  s1.875-1.26,1.875-2.812c0-0.887-0.278-1.664-0.703-2.179L57.818,52.126z"/>
<path fill="#000000" d="M50.256,57.5c-4.653,0-8.438,3.785-8.438,8.438c0,0.518,0.419,0.938,0.938,0.938s0.938-0.42,0.938-0.938  c0-3.618,2.944-6.562,6.562-6.562s6.562,2.944,6.562,6.562c0,0.518,0.419,0.938,0.938,0.938s0.938-0.42,0.938-0.938  C58.694,61.285,54.909,57.5,50.256,57.5z"/>
<path fill="#000000" d="M61.516,26.397h0.961l5.058,2.53c0.132,0.066,0.274,0.1,0.419,0.1c0.143,0,0.288-0.033,0.419-0.1l5.061-2.53  h3.723c2.69,0,4.88-2.189,4.88-4.882c0-1.893-1.064-3.566-2.715-4.376c0.033-0.293,0.086-0.58,0.086-0.879  c0-4.142-3.369-7.511-7.509-7.511c-2.683,0-5.162,1.465-6.491,3.739c-1.146-0.7-2.477-1.11-3.891-1.11  c-4.14,0-7.509,3.369-7.509,7.508C54.006,23.028,57.375,26.397,61.516,26.397z M61.516,13.254c2.671,0,4.993,1.896,5.519,4.505  c0.103,0.509,0.61,0.839,1.104,0.736c0.507-0.103,0.836-0.597,0.734-1.106c-0.289-1.438-1.003-2.695-1.972-3.698  c0.952-1.85,2.886-3.065,4.997-3.065c3.107,0,5.634,2.527,5.634,5.636c0,1.521-0.597,2.946-1.679,4.012  c-0.37,0.364-0.374,0.958-0.011,1.326c0.183,0.187,0.427,0.28,0.668,0.28c0.238,0,0.475-0.09,0.658-0.27  c0.75-0.738,1.316-1.609,1.695-2.558c0.791,0.553,1.298,1.468,1.298,2.464c0,1.659-1.348,3.007-3.005,3.007h-3.944  c-0.145,0-0.29,0.033-0.419,0.099l-4.839,2.421l-4.836-2.421c-0.13-0.065-0.273-0.099-0.419-0.099h-1.183  c-3.107,0-5.634-2.526-5.634-5.636C55.881,15.781,58.408,13.254,61.516,13.254z"/>
</svg>