<svg xmlns="http://www.w3.org/2000/svg" xmlns:xlink="http://www.w3.org/1999/xlink" version="1.1" id="Layer_1" x="0px" y="0px" width="50px" height="50px" viewBox="0 0 50 50" enable-background="new 0 0 50 50" xml:space="preserve">
<g id="browser_3_">
	<path fill="#000000" d="M44.741,8.905H5.643c-1.959,0-3.553,1.593-3.553,3.554v23.249c0,1.958,1.594,3.554,3.553,3.554h39.099   c1.959,0,3.554-1.596,3.554-3.554V12.459C48.295,10.498,46.703,8.905,44.741,8.905z M5.643,11.273h39.099   c0.654,0,1.184,0.529,1.184,1.186v4.008H4.458v-4.008C4.458,11.802,4.992,11.273,5.643,11.273z M4.458,35.705V18.836h11.047V36.89   H5.643C4.992,36.89,4.458,36.36,4.458,35.705z M44.741,36.89H17.875V18.836h28.05v16.869C45.925,36.36,45.396,36.89,44.741,36.89z"/>
	<circle fill="#000000" cx="7.716" cy="13.929" r="1.269"/>
	<circle fill="#000000" cx="11.27" cy="13.929" r="1.269"/>
	<circle fill="#000000" cx="14.825" cy="13.929" r="1.269"/>
	<rect x="6.445" y="21.053" fill="#000000" width="6.963" height="2.369"/>
	<rect x="6.445" y="24.68" fill="#000000" width="6.963" height="2.37"/>
	<rect x="6.445" y="28.457" fill="#000000" width="6.963" height="2.369"/>
	<rect x="6.445" y="32.309" fill="#000000" width="6.963" height="2.37"/>
	<path fill="#000000" d="M26.538,21.333h-6.516v5.257h6.516V21.333z M24.169,24.22h-1.777v-0.518h1.777V24.22z"/>
	<rect x="20.022" y="28.457" fill="#000000" width="23.548" height="2.369"/>
	<rect x="20.022" y="32.309" fill="#000000" width="23.548" height="2.37"/>
	<path fill="#000000" d="M35.055,21.333h-6.517v5.257h6.517V21.333z M32.685,24.22h-1.777v-0.518h1.777V24.22z"/>
	<path fill="#000000" d="M37.053,26.59h6.518v-5.257h-6.518V26.59z M39.423,23.702H41.2v0.518h-1.777V23.702z"/>
</g>
</svg>