<svg xmlns:dc="http://purl.org/dc/elements/1.1/" xmlns:cc="http://creativecommons.org/ns#" xmlns:rdf="http://www.w3.org/1999/02/22-rdf-syntax-ns#" xmlns:svg="http://www.w3.org/2000/svg" xmlns="http://www.w3.org/2000/svg" xmlns:sodipodi="http://sodipodi.sourceforge.net/DTD/sodipodi-0.dtd" xmlns:inkscape="http://www.inkscape.org/namespaces/inkscape" width="100" height="100" id="svg2" version="1.1" inkscape:version="0.48.4 r9939" sodipodi:docname="Heart Surgery.svg">
  <defs id="defs4">
 <style id="style2989" type="text/css">
   
    .fil0 {fill:black}
   
  </style>

  
  
  
  
  
  
  
  
  
  
  
  
  
  
 
 <style id="style3068" type="text/css">
   
    .fil0 {fill:black}
    .fil1 {fill:black;fill-rule:nonzero}
   
  </style>

  </defs>
  <sodipodi:namedview id="base" pagecolor="#ffffff" bordercolor="#666666" borderopacity="1.0" inkscape:pageopacity="0.0" inkscape:pageshadow="2" inkscape:zoom="5.6" inkscape:cx="56.785484" inkscape:cy="39.692884" inkscape:document-units="px" inkscape:current-layer="layer1" showgrid="false" inkscape:window-width="1280" inkscape:window-height="961" inkscape:window-x="-8" inkscape:window-y="-8" inkscape:window-maximized="1"/>
  <metadata id="metadata7">
    <rdf:RDF>
      <cc:Work rdf:about="">
        <dc:format>image/svg+xml</dc:format>
        <dc:type rdf:resource="http://purl.org/dc/dcmitype/StillImage"/>
        <dc:title/>
      </cc:Work>
    </rdf:RDF>
  </metadata>
  <g inkscape:label="Layer 1" inkscape:groupmode="layer" id="layer1" transform="translate(0,-952.36218)">
    <path inkscape:connector-curvature="0" style="fill:#000000;fill-opacity:1;fill-rule:evenodd;stroke:none" d="m 85.700002,986.39718 c -2.59,0 -4.69,2.35978 -4.69,5.27952 0,2.90973 2.1,5.26951 4.69,5.26951 2.59,0 4.69,-2.35978 4.69,-5.26951 0,-2.91974 -2.1,-5.27952 -4.69,-5.27952 z" id="path3194"/>
    <path inkscape:connector-curvature="0" style="fill:#000000;fill-opacity:1;fill-rule:evenodd;stroke:none" d="m 88.140002,997.85613 c -1.19,0.1 -2.24,0.63994 -3,1.44987 -0.18,0.15998 -0.34,0.34996 -0.47,0.56994 l 0,0 c -0.14,0.20996 -0.27,0.41996 -0.37,0.64996 l -4,6.9193 -7.55,4.3596 c -0.13,0.08 -0.25,0.16 -0.36,0.26 l -1.700001,-0.9899 -1.619999,2.7898 -1.390001,-0.8 -4.3,7.4394 1.86,1.0799 -6.02,3.9696 -0.46,-0.27 -0.54,0.9299 2.79,1.6199 0.54,-0.9299 -0.459999,-0.27 8.8,-2.3598 4.66,2.6798 4.3,-7.4394 -8.380001,-4.8395 0.810001,-1.3999 0.34,0.12 c -0.1,0.54 -0.02,1.1099 0.27,1.6099 l 0,0 c 0.65,1.1199 2.09,1.5098 3.21,0.8599 l 8.07,-4.6596 0.05,-0.02 0,-0.01 0.02,-0.01 c 0.44,-0.2599 0.77,-0.6399 0.96,-1.0799 l 0.24,-0.4199 1.21,14.2887 1.56,-0.14 0,16.1985 c 0,1.2899 1.05,2.3498 2.34,2.3498 l 1.410001,0 c 1.289999,0 2.349999,-1.0599 2.349999,-2.3498 l 0,-16.7185 1.69,-0.14 -1.79,-21.028 c -0.219998,-2.56993 -2.499998,-4.48975 -5.069998,-4.26977 z" id="path3196"/>
    <path inkscape:connector-curvature="0" style="fill:#000000;fill-opacity:1;fill-rule:evenodd;stroke:none" d="m 36.26,1012.9847 c 0.710001,0.41 1.11,2.0499 0.520001,3.4097 L 34.83,1020.844 c -0.24,0.54 -0.959999,0.69 -1.47,0.4 l -0.699999,-0.41 -1.34,2.3298 c 0.76,0.7299 0.96,1.9198 0.41,2.8697 l 0,0 c -0.65,1.1199 -2.09,1.5099 -3.2,0.86 l -8.080001,-4.6596 -0.04,-0.03 -0.01,0 -0.02,-0.01 c -0.44,-0.26 -0.76,-0.65 -0.95,-1.0799 l -0.24,-0.42 -0.88,10.319 5.61,5.6195 c 2.54,2.5398 0.07,5.7295 -1.92,5.7295 l -14.6500001,0 C 6.06,1042.362 5,1041.3021 5,1040.0123 l 0,-1.4099 c 0,-1.2899 1.06,-2.3398 2.3500001,-2.3398 l 7.5799999,0 -5.2899999,-5.2895 -0.74,-0.06 L 10.42,1013.1547 c 0.22,-2.5697 2.5,-4.4896 5.07,-4.2696 1.19,0.1 2.240001,0.64 3,1.4499 0.18,0.16 0.33,0.35 0.460001,0.5699 l 0,0 c 0.14,0.2 0.269999,0.42 0.379999,0.65 l 3.990001,6.9193 6.63,3.8297 1.319999,-2.2698 -0.7,-0.41 c -0.509999,-0.2899 -0.75,-0.9899 -0.399999,-1.4598 l 2.89,-3.9197 c 0.869999,-1.1899 2.5,-1.6598 3.199999,-1.2599 z" id="path3198"/>
    <path inkscape:connector-curvature="0" style="fill:#000000;fill-opacity:1;fill-rule:evenodd;stroke:none" d="m 17.92,997.42617 c 2.590001,0 4.690001,2.35978 4.690001,5.27953 0,2.9097 -2.1,5.2695 -4.690001,5.2695 -2.59,0 -4.69,-2.3598 -4.69,-5.2695 0,-2.91975 2.1,-5.27953 4.69,-5.27953 z" id="path3200"/>
    <path inkscape:connector-curvature="0" style="fill:#000000;fill-opacity:1;fill-rule:evenodd;stroke:none" d="m 46.430001,1020.3641 1.52,0 0.29,5.1495 3.55,-3.2697 1.07,1.0799 -4.36,4.8096 1.37,13.7687 -5.37,0 1.08,-10.749 -3.83,-4.6496 1.07,-1.0799 3.08,2.4498 z" id="path3202"/>
    <path inkscape:connector-curvature="0" style="fill:#000000;fill-opacity:1;fill-rule:evenodd;stroke:none" d="m 40.040001,1023.7138 c -0.57,0.1099 -1.23,-0.08 -1.71,-0.57 -0.49,-0.4899 -0.69,-1.1399 -0.57,-1.7098 0.56,-0.11 1.22,0.08 1.71,0.5699 0.48,0.49 0.68,1.1399 0.57,1.7099 z" id="path3204"/>
    <path inkscape:connector-curvature="0" style="fill:#000000;fill-opacity:1;fill-rule:evenodd;stroke:none" d="m 47.190001,1017.1844 c -0.48,-0.32 -0.81,-0.93 -0.81,-1.6199 0,-0.6799 0.33,-1.2899 0.81,-1.6098 0.48,0.3199 0.8,0.9299 0.8,1.6098 0,0.6899 -0.32,1.2999 -0.8,1.6199 z" id="path3206"/>
    <path inkscape:connector-curvature="0" style="fill:#000000;fill-opacity:1;fill-rule:evenodd;stroke:none" d="m 54.580001,1020.534 c -0.12,-0.5699 0.08,-1.2298 0.57,-1.7098 0.480001,-0.4899 1.140001,-0.6899 1.71,-0.5699 0.11,0.5699 -0.09,1.2198 -0.569999,1.7098 -0.490001,0.48 -1.140001,0.6799 -1.710001,0.5699 z" id="path3208"/>
    <path inkscape:connector-curvature="0" style="fill:#000000;fill-opacity:1;fill-rule:evenodd;stroke:none" d="m 42.060001,1024.6637 c -0.64,-0.43 -1.07,-1.2299 -1.07,-2.1498 0,-0.9199 0.43,-1.7199 1.07,-2.1498 0.65,0.4299 1.08,1.2299 1.08,2.1498 0,0.9199 -0.43,1.7198 -1.08,2.1498 z" id="path3210"/>
    <path inkscape:connector-curvature="0" style="fill:#000000;fill-opacity:1;fill-rule:evenodd;stroke:none" d="m 47.950001,1019.2942 c -0.15,-0.76 0.11,-1.6399 0.76,-2.2798 0.65,-0.65 1.52,-0.9199 2.28,-0.76 0.15,0.75 -0.11,1.6299 -0.76,2.2798 -0.65,0.64 -1.53,0.9099 -2.28,0.76 z" id="path3212"/>
    <path inkscape:connector-curvature="0" style="fill:#000000;fill-opacity:1;fill-rule:evenodd;stroke:none" d="m 53.620002,1022.5639 c 0.429999,-0.65 1.239999,-1.0799 2.149999,-1.0799 0.92,0 1.72,0.4299 2.15,1.0799 -0.43,0.6399 -1.23,1.0699 -2.15,1.0699 -0.91,0 -1.72,-0.43 -2.149999,-1.0699 z" id="path3214"/>
    <path inkscape:connector-curvature="0" style="fill:#000000;fill-opacity:1;fill-rule:evenodd;stroke:none" d="m 40.990001,1025.7436 c -0.43,0.6399 -1.23,1.0699 -2.15,1.0699 -0.92,0 -1.72,-0.43 -2.15,-1.0699 0.43,-0.65 1.23,-1.0799 2.15,-1.0799 0.92,0 1.72,0.4299 2.15,1.0799 z" id="path3216"/>
    <path inkscape:connector-curvature="0" style="fill:#000000;fill-opacity:1;fill-rule:evenodd;stroke:none" d="m 46.430001,1019.2942 c -0.76,0.1499 -1.63,-0.12 -2.28,-0.77 -0.65,-0.6399 -0.91,-1.5198 -0.76,-2.2698 0.76,-0.1599 1.63,0.11 2.28,0.76 0.65,0.6399 0.91,1.5198 0.76,2.2798 z" id="path3218"/>
    <path inkscape:connector-curvature="0" style="fill:#000000;fill-opacity:1;fill-rule:evenodd;stroke:none" d="m 52.550001,1021.484 c -0.64,-0.43 -1.08,-1.2299 -1.08,-2.1498 0,-0.92 0.44,-1.7199 1.08,-2.1498 0.64,0.4299 1.070001,1.2298 1.070001,2.1498 0,0.9199 -0.430001,1.7198 -1.070001,2.1498 z" id="path3220"/>
    <path inkscape:connector-curvature="0" style="fill:#000000;fill-opacity:1;fill-rule:nonzero;stroke:none" d="m 56.880001,1028.0234 c -0.1,0.1299 0.09,0.2399 0.16,0.1499 l 0.01,-0.01 0.04,-0.05 0.05,-0.05 0.05,-0.05 0.05,-0.05 0.04,-0.05 0.05,-0.05 0.05,-0.04 0.05,-0.05 0.05,-0.05 0.05,-0.05 0.04,-0.05 0.05,-0.05 0.05,-0.05 0.05,-0.04 0.05,-0.05 0.02,-0.02 c 0.100001,-0.08 -0.02,-0.2599 -0.139999,-0.1599 l -0.03,0.02 -0.05,0.05 -0.05,0.05 -0.05,0.05 -0.05,0.05 -0.05,0.05 -0.04,0.05 -0.05,0.05 -0.05,0.04 -0.05,0.05 -0.05,0.05 -0.05,0.05 -0.05,0.05 -0.04,0.05 -0.05,0.05 -0.05,0.05 z" id="path3222"/>
    <path inkscape:connector-curvature="0" style="fill:#000000;fill-opacity:1;fill-rule:nonzero;stroke:none" d="m 55.480001,1029.6532 c -0.09,0.11 0.08,0.25 0.16,0.14 l 0,0 0.03,-0.04 0.04,-0.05 0.05,-0.06 0.04,-0.05 0.04001,-0.05 0.04,-0.05 0.05,-0.06 0.04,-0.05 0.04,-0.05 0.04001,-0.05 0.05,-0.05 0.04,-0.06 0.04,-0.05 0.05,-0.05 0.04,-0.05 0.05,-0.05 0,-0.01 c 0.1,-0.12 -0.08,-0.24 -0.16,-0.14 l -0.01,0.01 -0.04,0.05 -0.04,0.05 -0.05,0.05 -0.04,0.06 -0.05,0.05 -0.04,0.05 -0.04,0.05 -0.05,0.06 -0.04,0.05 -0.04,0.05 -0.05,0.05 -0.04,0.06 -0.04,0.05 -0.04,0.05 -0.05,0.06 z" id="path3224"/>
    <path inkscape:connector-curvature="0" style="fill:#000000;fill-opacity:1;fill-rule:nonzero;stroke:none" d="m 54.230001,1031.413 c -0.07,0.12 0.08,0.24 0.18,0.12 l 0.02,-0.03 0.03,-0.06 0.04,-0.05 0.04,-0.06 0.03,-0.06 0.04,-0.05 0.04,-0.06 0.04,-0.05 0.03,-0.06 0.04,-0.05 0.04,-0.06 0.04,-0.05 0.04,-0.06 0.03,-0.05 0.04001,-0.06 0.04,-0.05 0.02,-0.03 c 0.08,-0.1 -0.09,-0.23 -0.18,-0.12 l 0,0 -0.02,0.02 -0.03,0.06 -0.04,0.05 -0.04,0.06 -0.04,0.05 -0.04,0.06 -0.04,0.05 -0.03,0.06 -0.04,0.06 -0.04,0.05 -0.04,0.06 -0.03,0.06 -0.04001,0.05 -0.04,0.06 -0.04,0.06 -0.03,0.05 z" id="path3226"/>
    <path inkscape:connector-curvature="0" style="fill:#000000;fill-opacity:1;fill-rule:nonzero;stroke:none" d="m 53.150001,1033.2829 c -0.07,0.13 0.12,0.22 0.19,0.1 l 0.01,-0.03 0.03,-0.06 0.03,-0.06 0.04,-0.06 0.03,-0.06 0.03,-0.06 0.03,-0.05 0.03,-0.06 0.04,-0.06 0.03,-0.06 0.03,-0.06 0.03,-0.06 0.04,-0.06 0.03,-0.05 0.03,-0.06 0.04,-0.06 0.01,-0.03 c 0.07,-0.14 -0.13,-0.22 -0.19,-0.1 l -0.01,0.02 -0.03,0.06 -0.04,0.06 -0.03,0.06 -0.03,0.06 -0.04,0.06 -0.03,0.06 -0.03,0.05 -0.04,0.06 -0.03,0.06 -0.03,0.06 -0.03,0.06 -0.03,0.06 -0.04,0.06 -0.03,0.06 -0.03,0.06 z" id="path3228"/>
    <path inkscape:connector-curvature="0" style="fill:#000000;fill-opacity:1;fill-rule:nonzero;stroke:none" d="m 52.230001,1035.2427 c -0.04,0.14 0.14,0.21 0.2,0.08 l 0.01,-0.02 0.02,-0.06 0.03,-0.06 0.03,-0.06 0.02,-0.07 0.03,-0.06 0.03,-0.06 0.02,-0.06 0.03,-0.06 0.03,-0.07 0.03,-0.06 0.02,-0.06 0.03,-0.06 0.03,-0.06 0.03,-0.06 0.03,-0.06 0.01,-0.04 c 0.06,-0.1199 -0.13,-0.2199 -0.19,-0.09 l -0.02,0.04 -0.03,0.06 -0.03,0.06 -0.02,0.06 -0.03,0.06 -0.03,0.07 -0.03,0.06 -0.03,0.06 -0.02,0.06 -0.03,0.06 -0.03,0.07 -0.02,0.06 -0.03,0.06 -0.03,0.07 -0.02,0.06 -0.03,0.06 z" id="path3230"/>
    <path inkscape:connector-curvature="0" style="fill:#000000;fill-opacity:1;fill-rule:nonzero;stroke:none" d="m 51.480001,1037.2625 c -0.04,0.13 0.16,0.2 0.21,0.07 l 0.01,-0.04 0.02,-0.07 0.02,-0.06 0.02,-0.07 0.03,-0.06 0.02,-0.07 0.02,-0.06 0.02,-0.07 0.03,-0.06 0.02,-0.07 0.02,-0.06 0.02,-0.07 0.03,-0.06 0.02,-0.06 0.02,-0.07 0.03,-0.06 c 0.05,-0.15 -0.16,-0.2 -0.199999,-0.08 l -0.03,0.07 -0.02,0.06 -0.02,0.07 -0.03,0.06 -0.02,0.07 -0.02,0.06 -0.03,0.07 -0.02,0.06 -0.02,0.07 -0.02,0.06 -0.03,0.07 -0.02,0.06 -0.02,0.07 -0.02,0.07 -0.03,0.06 z" id="path3232"/>
    <path inkscape:connector-curvature="0" style="fill:#000000;fill-opacity:1;fill-rule:nonzero;stroke:none" d="m 50.890001,1039.3323 c -0.04,0.12 0.15,0.21 0.2,0.06 l 0.01,-0.03 0.02,-0.07 0.01,-0.07 0.02,-0.06 0.02,-0.07 0.02,-0.07 0.02,-0.07 0.01,-0.07 0.02,-0.06 0.02,-0.07 0.02,-0.07 0.02,-0.07 0.02,-0.06 0.01,-0.07 0.02,-0.07 0.02,-0.06 c 0.04,-0.12 -0.16,-0.2 -0.2,-0.06 l -0.02,0.06 -0.02,0.07 -0.02,0.07 -0.02,0.07 -0.02,0.07 -0.02,0.06 -0.02,0.07 -0.01,0.07 -0.02,0.07 -0.02,0.06 -0.02,0.07 -0.02,0.07 -0.01,0.07 -0.02,0.07 -0.02,0.07 z" id="path3234"/>
    <path inkscape:connector-curvature="0" style="fill:#000000;fill-opacity:1;fill-rule:nonzero;stroke:none" d="m 58.750002,1029.0933 c -0.110001,0.1299 0.08,0.2399 0.149999,0.1499 l 0.01,0 0.05,-0.05 0.04,-0.05 0.05,-0.05 0.05,-0.05 0.05,-0.05 0.04,-0.05 0.05,-0.05 0.05,-0.05 0.05,-0.05 0.05,-0.05 0.05,-0.04 0.05,-0.05 0.04,-0.05 0.05,-0.05 0.05,-0.05 0.03,-0.02 c 0.09,-0.08 -0.04,-0.25 -0.149999,-0.16 l 0,0.01 -0.03,0.02 -0.05,0.05 -0.05,0.05 -0.05,0.04 -0.04,0.05 -0.05,0.05 -0.05,0.05 -0.05,0.05 -0.05,0.05 -0.05,0.05 -0.05,0.05 -0.05,0.05 -0.04,0.05 -0.05,0.05 -0.05,0.05 -0.05,0.05 z" id="path3236"/>
    <path inkscape:connector-curvature="0" style="fill:#000000;fill-opacity:1;fill-rule:nonzero;stroke:none" d="m 57.340001,1030.7331 c -0.09,0.11 0.08,0.24 0.170001,0.13 l 0.02,-0.03 0.05,-0.06 0.04,-0.05 0.04,-0.05 0.04,-0.06 0.05,-0.05 0.04,-0.05 0.04,-0.05 0.04,-0.06 0.05,-0.05 0.04,-0.05 0.04,-0.05 0.05,-0.05 0.04,-0.05 0.04,-0.06 0.05,-0.05 0,0 c 0.1,-0.12 -0.08,-0.2499 -0.16,-0.1499 l 0,0.01 -0.05,0.05 -0.04,0.06 -0.05,0.05 -0.04,0.05 -0.05,0.05 -0.04,0.06 -0.04,0.05 -0.05,0.05 -0.04,0.05 -0.04,0.06 -0.04,0.05 -0.05,0.05 -0.04,0.06 -0.04,0.05 -0.04,0.05 z" id="path3238"/>
    <path inkscape:connector-curvature="0" style="fill:#000000;fill-opacity:1;fill-rule:nonzero;stroke:none" d="m 56.090001,1032.493 c -0.07,0.1099 0.08,0.2399 0.18,0.1199 l 0.02,-0.04 0.04,-0.05 0.03,-0.06 0.04,-0.06 0.04,-0.05 0.03,-0.06 0.04,-0.05 0.04,-0.06 0.03,-0.05 0.04,-0.06 0.04,-0.05 0.04,-0.06 0.04,-0.05 0.03,-0.06 0.04,-0.05 0.04,-0.06 0.02,-0.02 c 0.08,-0.11 -0.09,-0.2399 -0.18,-0.1299 l 0,0 -0.01,0.03 -0.04,0.05 -0.04,0.06 -0.04,0.05 -0.04,0.06 -0.04,0.05 -0.03,0.06 -0.04,0.06 -0.04001,0.05 -0.04,0.06 -0.04,0.05 -0.03,0.06 -0.04,0.06 -0.04,0.05 -0.03,0.06 -0.04,0.06 z" id="path3240"/>
    <path inkscape:connector-curvature="0" style="fill:#000000;fill-opacity:1;fill-rule:nonzero;stroke:none" d="m 55.010001,1034.3628 c -0.07,0.13 0.13,0.22 0.19,0.1 l 0.01,-0.03 0.03,-0.06 0.04,-0.06 0.03,-0.06 0.03,-0.06 0.03,-0.06 0.03,-0.06 0.03,-0.06 0.04,-0.06 0.03,-0.06 0.03,-0.05 0.03,-0.06 0.04,-0.06 0.03,-0.06 0.03,-0.06 0.04,-0.06 0.01,-0.02 c 0.07,-0.14 -0.13,-0.22 -0.179999,-0.11 l -0.02,0.03 -0.03,0.06 -0.04,0.05 -0.03,0.06 -0.03,0.06 -0.04,0.06 -0.03,0.06 -0.03,0.06 -0.03,0.06 -0.04,0.06 -0.03,0.06 -0.03,0.06 -0.03,0.06 -0.03,0.06 -0.04,0.06 -0.03,0.06 z" id="path3242"/>
    <path inkscape:connector-curvature="0" style="fill:#000000;fill-opacity:1;fill-rule:nonzero;stroke:none" d="m 54.090001,1036.3126 c -0.04,0.14 0.14,0.21 0.200001,0.09 l 0.01,-0.02 0.03,-0.06 0.02,-0.07 0.03,-0.06 0.02,-0.06 0.03,-0.06 0.03,-0.06 0.03,-0.07 0.02,-0.06 0.03,-0.06 0.03,-0.06 0.03,-0.06 0.02,-0.07 0.03,-0.06 0.03,-0.06 0.03,-0.06 0.01,-0.03 c 0.06,-0.12 -0.120001,-0.23 -0.19,-0.09 l -0.02,0.03 -0.03,0.06 -0.02,0.06 -0.03,0.07 -0.03,0.06 -0.03,0.06 -0.03,0.06 -0.02,0.06 -0.03,0.07 -0.03,0.06 -0.03,0.06 -0.02,0.06 -0.03,0.07 -0.03,0.06 -0.02,0.06 -0.03,0.07 z" id="path3244"/>
    <path inkscape:connector-curvature="0" style="fill:#000000;fill-opacity:1;fill-rule:nonzero;stroke:none" d="m 53.340001,1038.3424 c -0.04,0.13 0.160001,0.2 0.21,0.06 l 0.01,-0.04 0.02,-0.06 0.02,-0.07 0.03,-0.06 0.02,-0.07 0.02,-0.06 0.02,-0.07 0.02,-0.06 0.03,-0.07 0.02,-0.06 0.02,-0.07 0.03,-0.06 0.02,-0.07 0.02,-0.06 0.03,-0.06 0.02,-0.07 c 0.05,-0.14 -0.16,-0.2 -0.2,-0.07 l -0.03,0.06 -0.02,0.07 -0.02,0.06 -0.03,0.07 -0.02,0.06 -0.02,0.07 -0.03,0.06 -0.02,0.07 -0.02,0.06 -0.02,0.07 -0.03,0.06 -0.02,0.07 -0.02,0.06 -0.02,0.07 -0.02,0.07 z" id="path3246"/>
    <path inkscape:connector-curvature="0" style="fill:#000000;fill-opacity:1;fill-rule:nonzero;stroke:none" d="m 52.750001,1040.4122 c -0.04,0.11 0.15,0.2 0.21,0.05 l 0,-0.03 0.02,-0.06 0.02,-0.07 0.01,-0.07 0.02,-0.07 0.02,-0.07 0.02,-0.06 0.02,-0.07 0.01,-0.07 0.02,-0.07 0.02,-0.06 0.02,-0.07 0.02,-0.07 0.02,-0.06 0.02,-0.07 0.01,-0.06 c 0.04,-0.13 -0.149999,-0.21 -0.2,-0.06 l -0.02,0.06 -0.02,0.07 -0.02,0.06 -0.02,0.07 -0.02,0.07 -0.02,0.07 -0.01,0.07 -0.02,0.06 -0.02,0.07 -0.02,0.07 -0.02,0.07 -0.01,0.07 -0.02,0.06 -0.02,0.07 -0.02,0.07 z" id="path3248"/>
    <path inkscape:connector-curvature="0" style="fill:#000000;fill-opacity:1;fill-rule:nonzero;stroke:none" d="m 57.820001,1028.5633 c -0.11,0.12 0.08,0.24 0.150001,0.14 l 0.01,0 0.04,-0.05 0.05,-0.05 0.05,-0.05 0.05,-0.05 0.04,-0.05 0.05,-0.05 0.05,-0.05 0.05,-0.05 0.05,-0.04 0.05,-0.05 0.05,-0.05 0.04,-0.05 0.05,-0.05 0.05,-0.05 0.05,-0.04 0.02,-0.03 c 0.1,-0.07 -0.03,-0.25 -0.140001,-0.16 l 0,0.01 -0.03,0.02 -0.05,0.05 -0.05,0.05 -0.05,0.05 -0.05,0.05 -0.05,0.04 -0.04,0.05 -0.05,0.05 -0.05,0.05 -0.05,0.05 -0.05,0.05 -0.05,0.05 -0.05,0.05 -0.04,0.05 -0.05,0.05 -0.05,0.05 z" id="path3250"/>
    <path inkscape:connector-curvature="0" style="fill:#000000;fill-opacity:1;fill-rule:nonzero;stroke:none" d="m 56.410002,1030.1932 c -0.09,0.11 0.08,0.2499 0.169999,0.1299 l 0.02,-0.03 0.05,-0.06 0.04,-0.05 0.04,-0.05 0.04,-0.05 0.04,-0.06 0.05,-0.05 0.04,-0.05 0.04,-0.05 0.05,-0.05 0.04,-0.06 0.04,-0.05 0.05,-0.05 0.04,-0.05 0.04,-0.05 0.05,-0.05 0,-0.01 c 0.1,-0.12 -0.08,-0.25 -0.16,-0.14 l -0.01,0.01 -0.04,0.05 -0.04,0.05 -0.05,0.05 -0.04,0.05 -0.05,0.06 -0.04,0.05 -0.04,0.05 -0.05,0.05 -0.04,0.06 -0.04,0.05 -0.05,0.05 -0.04,0.06 -0.04,0.05 -0.04,0.05 -0.05,0.05 z" id="path3252"/>
    <path inkscape:connector-curvature="0" style="fill:#000000;fill-opacity:1;fill-rule:nonzero;stroke:none" d="m 55.160001,1031.953 c -0.07,0.12 0.08,0.24 0.18,0.12 l 0.02,-0.03 0.04,-0.06 0.03,-0.06 0.04,-0.05 0.04,-0.06 0.03,-0.05 0.04,-0.06 0.04,-0.06 0.03,-0.05 0.04,-0.06 0.04,-0.05 0.04,-0.06 0.04,-0.05 0.03,-0.06 0.04,-0.05 0.04,-0.06 0.02,-0.02 c 0.08,-0.1 -0.09,-0.24 -0.18,-0.13 l 0,0.01 -0.01,0.02 -0.04,0.05 -0.04,0.06 -0.04,0.06 -0.04,0.05 -0.04,0.06 -0.04,0.05 -0.03,0.06 -0.04,0.05 -0.04,0.06 -0.04,0.06 -0.03,0.05 -0.04,0.06 -0.04001,0.06 -0.04,0.05 -0.03,0.06 z" id="path3254"/>
    <path inkscape:connector-curvature="0" style="fill:#000000;fill-opacity:1;fill-rule:nonzero;stroke:none" d="m 54.080001,1033.8228 c -0.07,0.13 0.13,0.22 0.19,0.1 l 0.01,-0.03 0.03,-0.06 0.04,-0.06 0.03,-0.06 0.03,-0.06 0.03,-0.06 0.03,-0.06 0.03,-0.06 0.04,-0.05 0.03,-0.06 0.03,-0.06 0.03,-0.06 0.04,-0.06 0.03,-0.06 0.03,-0.05 0.04,-0.06 0.01,-0.03 c 0.07,-0.14 -0.129999,-0.2199 -0.18,-0.11 l -0.02,0.03 -0.03,0.06 -0.04,0.06 -0.03,0.06 -0.03,0.05 -0.04,0.06 -0.03,0.06 -0.03,0.06 -0.03,0.06 -0.04,0.06 -0.03,0.06 -0.03,0.06 -0.03,0.06 -0.03,0.06 -0.04,0.06 -0.03,0.06 z" id="path3256"/>
    <path inkscape:connector-curvature="0" style="fill:#000000;fill-opacity:1;fill-rule:nonzero;stroke:none" d="m 53.160001,1035.7826 c -0.04,0.13 0.14,0.21 0.2,0.08 l 0.01,-0.02 0.02,-0.06 0.03,-0.06 0.03,-0.07 0.02,-0.06 0.03,-0.06 0.03,-0.06 0.02,-0.06 0.03,-0.07 0.03,-0.06 0.03,-0.06 0.02,-0.06 0.03,-0.06 0.03,-0.06 0.03,-0.07 0.03,-0.06 0.01,-0.03 c 0.06,-0.12 -0.13,-0.22 -0.190001,-0.09 l -0.02,0.03 -0.03,0.06 -0.02,0.07 -0.03,0.06 -0.03,0.06 -0.03,0.06 -0.03,0.06 -0.02,0.07 -0.03,0.06 -0.03,0.06 -0.03,0.06 -0.02,0.07 -0.03,0.06 -0.03,0.06 -0.02,0.07 -0.03,0.06 z" id="path3258"/>
    <path inkscape:connector-curvature="0" style="fill:#000000;fill-opacity:1;fill-rule:nonzero;stroke:none" d="m 52.410001,1037.8025 c -0.04,0.1299 0.16,0.1999 0.210001,0.07 l 0.01,-0.04 0.02,-0.07 0.02,-0.07 0.03,-0.06 0.02,-0.07 0.02,-0.06 0.02,-0.07 0.02,-0.06 0.03,-0.06 0.02,-0.07 0.02,-0.06 0.03,-0.07 0.02,-0.06 0.02,-0.07 0.03,-0.06 0.02,-0.07 c 0.05,-0.14 -0.16,-0.2 -0.2,-0.07 l -0.03,0.06 -0.02,0.07 -0.02,0.06 -0.03,0.07 -0.02,0.06 -0.02,0.07 -0.03,0.06 -0.02,0.07 -0.02,0.06 -0.02,0.07 -0.03,0.07 -0.02,0.06 -0.02,0.07 -0.02,0.06 -0.02,0.07 z" id="path3260"/>
    <path inkscape:connector-curvature="0" style="fill:#000000;fill-opacity:1;fill-rule:nonzero;stroke:none" d="m 51.820001,1039.8723 c -0.04,0.12 0.15,0.21 0.2,0.05 l 0.01,-0.02 0.02,-0.07 0.02,-0.07 0.01,-0.07 0.02,-0.07 0.02,-0.06 0.02,-0.07 0.01,-0.07 0.02,-0.07 0.02,-0.06 0.02,-0.07 0.02,-0.07 0.02,-0.06 0.02,-0.07 0.01,-0.07 0.02,-0.06 c 0.04,-0.12 -0.16,-0.21 -0.2,-0.06 l -0.02,0.06 -0.02,0.07 -0.02,0.07 -0.02,0.06 -0.02,0.07 -0.02,0.07 -0.01,0.07 -0.02,0.07 -0.02,0.06 -0.02,0.07 -0.02,0.07 -0.02,0.07 -0.01,0.07 -0.02,0.07 -0.02,0.06 z" id="path3262"/>
  </g>
</svg>