<?xml version="1.0" encoding="utf-8"?>
<!-- Generator: Adobe Illustrator 15.1.0, SVG Export Plug-In . SVG Version: 6.00 Build 0)  -->
<!DOCTYPE svg PUBLIC "-//W3C//DTD SVG 1.1//EN" "http://www.w3.org/Graphics/SVG/1.1/DTD/svg11.dtd">
<svg version="1.1" id="Layer_1" xmlns="http://www.w3.org/2000/svg" xmlns:xlink="http://www.w3.org/1999/xlink" x="0px" y="0px"
	 width="100px" height="82.438px" viewBox="0 0 100 82.438" enable-background="new 0 0 100 82.438" xml:space="preserve">
<path fill="#010101" d="M0,41.846c0,0,21.516,11.943,23.446,13.017c-0.055,2.162-0.71,27.575-0.71,27.575
	s21.413-16.25,23.317-17.697c2.055,1.02,17.259,8.614,17.259,8.614L100,0L0,41.846z M44.149,61.07
	c-3.257,2.472-11.253,8.541-15.668,11.893c2.75-5.576,7.442-15.088,7.856-15.931C37.147,57.459,41.683,59.799,44.149,61.07z
	 M35.532,54.695L27.18,71.764c0.151-5.65,0.396-15.099,0.476-18.188l52.419-37.289L35.532,54.695l0.002,0.001L35.532,54.695z
	 M85.995,10.242L27.002,52.188c-2.786-1.544-13.462-7.459-17.733-9.828C15.055,39.926,67.613,17.929,85.995,10.242z M45.591,59.976
	c0,0-0.015,0.011-0.027,0.021l-8.193-4.329l53.534-46.74c-5.167,10.328-27.915,55.811-29.486,58.955
	C58.434,66.396,45.591,59.976,45.591,59.976z"/>
</svg>
