<?xml version="1.0" encoding="utf-8"?>
<!-- Generator: Adobe Illustrator 16.0.0, SVG Export Plug-In . SVG Version: 6.00 Build 0)  -->
<!DOCTYPE svg PUBLIC "-//W3C//DTD SVG 1.1//EN" "http://www.w3.org/Graphics/SVG/1.1/DTD/svg11.dtd">
<svg version="1.1" id="Layer_1" xmlns="http://www.w3.org/2000/svg" xmlns:xlink="http://www.w3.org/1999/xlink" x="0px" y="0px"
	 width="98.917px" height="100px" viewBox="6.805 0.1 98.917 100" enable-background="new 6.805 0.1 98.917 100"
	 xml:space="preserve">
<g>
	<path d="M88.094,19.809c-0.259,0-0.512,0.005-0.776,0.014c-3.326,0.109-6.367,0.768-8.256,1.228v-6.07
		c0-3.492-2.165-8.353-12.481-11.687C60.196,1.236,51.796,0.1,42.934,0.1c-8.864,0-17.261,1.135-23.646,3.194
		C8.969,6.626,6.805,11.489,6.805,14.981V82.84c0,4.877,4.288,9.396,12.074,12.722c6.845,2.927,15.387,4.538,24.055,4.538
		c8.667,0,17.208-1.611,24.055-4.538c7.785-3.326,12.072-7.847,12.072-12.722v-6.182c0.642-0.7,1.316-0.902,3.41-1.344
		c1.368-0.289,3.067-0.646,4.906-1.421c10.398-4.369,16.721-12.648,17.807-23.312l0.051-0.477
		c0.556-5.348,1.854-17.871-4.732-25.176C97.484,21.581,93.195,19.809,88.094,19.809z M100.457,50.099
		c-0.978,9.583-6.844,16.017-14.923,19.412c-4.029,1.695-7.49,0.874-10.314,4.322c-0.311,0.383-0.924,1.436-0.913,2.782v6.225
		c0,5.595-14.045,12.507-31.374,12.507c-17.328,0-31.376-6.912-31.376-12.507v-67.86c0-5.591,14.048-10.127,31.376-10.127
		c17.329,0,31.374,4.535,31.374,10.127v7.518c0.131,1.797,0.971,3.702,3.199,3.702c0.325,0,0.685-0.039,1.073-0.128
		c1.194-0.272,4.834-1.363,8.895-1.498c0.212-0.005,0.417-0.01,0.62-0.01C103.507,24.564,101.054,44.24,100.457,50.099z"/>
	<path d="M85.402,29.776c-1.424,0-3.051,0.119-4.908,0.298c-2.529,0.248-5.681,1.22-6.186,4.569v27.709c0,0-0.016,3.438,3.149,3.74
		c0.101,0.009,0.214,0.014,0.334,0.014c1.967,0,6.328-1.248,8.504-2.632c11.171-7.101,9.674-23.745,6.822-29.687
		C91.782,30.702,89.384,29.776,85.402,29.776z M79.062,61.164V35.288c0.228-0.134,0.818-0.376,1.894-0.479
		c1.968-0.191,3.339-0.277,4.447-0.277h0.003c1.75,0,2.48,0.228,2.761,0.366c0.127,0.062,0.315,0.154,0.583,0.776l0.039,0.09
		l0.041,0.084c0.897,1.87,2.015,6.559,1.411,11.809c-0.433,3.779-1.913,8.896-6.497,11.81C82.69,60.134,80.545,60.836,79.062,61.164
		z"/>
	<path d="M65.532,11.81c-0.583-0.305-1.301-0.082-1.606,0.5c-0.306,0.582-0.082,1.299,0.499,1.604
		c1.386,0.729,1.875,1.382,1.875,1.753c0,0.366-0.502,1.062-2.058,1.845c-3.665-2.449-11.825-4.152-21.307-4.152
		c-9.483,0-17.644,1.703-21.307,4.152c-1.56-0.782-2.062-1.48-2.062-1.845c0-0.372,0.496-1.029,1.883-1.757
		c0.583-0.304,0.806-1.023,0.501-1.604c-0.305-0.581-1.023-0.805-1.606-0.5c-2.093,1.101-3.154,2.4-3.154,3.863
		c0,2.355,2.719,4.257,8.082,5.645c4.734,1.225,11.006,1.9,17.664,1.9c6.656,0,12.928-0.674,17.659-1.9
		c5.364-1.388,8.084-3.29,8.084-5.646C68.677,14.205,67.617,12.908,65.532,11.81z"/>
</g>
</svg>
