<?xml version="1.0" encoding="UTF-8" standalone="no"?>
<!-- Created with Inkscape (http://www.inkscape.org/) -->

<svg
   xmlns:dc="http://purl.org/dc/elements/1.1/"
   xmlns:cc="http://creativecommons.org/ns#"
   xmlns:rdf="http://www.w3.org/1999/02/22-rdf-syntax-ns#"
   xmlns:svg="http://www.w3.org/2000/svg"
   xmlns="http://www.w3.org/2000/svg"
   xmlns:inkscape="http://www.inkscape.org/namespaces/inkscape"
   version="1.1"
   width="340.88"
   height="340.88"
   id="svg2"
   xml:space="preserve"><defs
     id="defs18" /><metadata
     id="metadata8"><rdf:RDF><cc:Work
         rdf:about=""><dc:format>image/svg+xml</dc:format><dc:type
           rdf:resource="http://purl.org/dc/dcmitype/StillImage" /><dc:title /></cc:Work></rdf:RDF></metadata><g
     transform="matrix(1.25,0,0,-1.25,-2.0312,341.03)"
     id="g10"><g
       transform="scale(0.1,0.1)"
       id="g12"><path
         d="m 1380.2,2728.2 c 752.66,0.03 1363,-610.34 1363,-1363 C 2743.23,612.04 2132.86,1.7 1380.2,1.2 627.04,1.66875 16.7,612.04 16.2,1365.2 c 0.4688,752.66 610.84,1363 1364,1363"
         inkscape:connector-curvature="0"
         id="path14"
         style="fill:#ec1d24" /><path
         d="m 1380.2,2457.2 c 602.7,-0.49 1091.5,-489.3 1092,-1092 -0.49,-603.2 -489.3,-1092 -1092,-1092 -603.2,-0.004 -1092,488.8 -1092,1092 -0.008,602.7 488.8,1091.5 1092,1092"
         inkscape:connector-curvature="0"
         id="path16"
         style="fill:#ffffff" /><path
         d="m 2100.2,1129.2 c 84.12,0.36 152.59,-68.11 153,-153 -0.41,-84.043 -68.88,-152.52 -153,-153 -84.81,0.484 -153.29,68.957 -153,153 -0.29,84.89 68.19,153.36 153,153"
         inkscape:connector-curvature="0"
         id="path18" /><path
         d="m 1540.2,1731.2 c 7.73,10.1 13.45,22.09 13,36 0.45,30.52 -24.44,55.41 -55,55 -30.85,0.41 -55.74,-24.48 -56,-55 0.26,-17.15 8.11,-32.06 20,-43 1.4,-0.93 4.15,-4.95 1,-9 -4.04,-4.82 -32.64,-33.71 -33,-73 0.36,-40.18 0,-43 0,-43 0,0 2.05,-17.19 -11,-22 -12.31,-4.77 -43.03,-14.07 -45,-15 -1.41,-0.2 -10.14,-2.73 -21,-3 -10.56,0.27 -19.3,-3.68 -19,-19 -0.3,-16.24 12.66,-20.18 19,-20 6.06,-0.18 10.01,1.79 12,2 2.52,0.91 16.05,2.32 18,3 2.55,0.45 69.34,22.43 77,27 -1.46,-7.11 -15.83,-51.91 -54,-80 -24.81,-17.59 -26.5,-27.54 -27,-45 0.5,-8.07 0,-130 0,-130 0,0 1.61,-15.53 -16,-22 -7.18,-3.18 -17.32,-5.29 -17,-18 -0.32,-11.8 14.05,-15.19 17,-16 3.81,-0.03 31.29,-2.57 45,1 v -23 l -83,12 c -2.61,81.04 -42.83,220.14 -62,255 -3.7,7.61 -18.35,25.08 -38,25 -18.68,0.08 -55.31,-21.34 -59,-24 -9.84,4.92 -41.96,19.01 -66,19 -24.43,0.01 -121.38,-29.3 -207,-29 -70.266,-0.3 -103.12,38.06 -121,63 -42.551,60.37 -86.59,124.14 -151,159 -27.887,14.98 -32.398,10.47 -74,67 -1.23,-4.68 -6.867,-26.66 2,-55 -4.922,-2.66 -21.691,-13.08 -26,-22 -4.988,-8.84 -18.938,-21.52 -26,-25 -6.465,-4.13 -20.109,-11.84 -28,-34 -4.676,-13.24 -9.934,-19.85 -13,-24 -33.523,-41.24 -28.258,-40.96 -68,-76 -3.566,-2.86 -12.867,-7.51 -13,-31 0.133,-23.85 9.855,-32.3 21,-32 11.684,-0.3 15.488,1.39 22,1 7.016,0.39 10.82,-2.15 23,-2 34.738,-0.15 27.977,40.85 62,41 28.113,-0.15 44.18,8.3 58,18 3.086,-8 20.418,-65.07 6,-141 -15.172,-76.24 0.891,-117.67 25,-157 -2.129,-22.81 -11.48,-74.97 -17,-93 -3.305,-9.7 -7.953,-22.38 -12,-27 -4.41,-5.53 -14.555,-16.94 -12,-28 1.672,-10.92 0.406,-15.57 -1,-19 -1.977,-3.33 -7.312,-14.64 -1,-28 24.469,-48.207 38.672,-102.4 37,-136 0.066,-11.375 1.758,-22.789 16,-20 4.355,-13.359 8.164,-35.34 29,-45 1.988,5.855 12.977,44.746 22,66 -4.793,2.84 -22.973,8.758 -23,29 -0.418,1.273 0.195,7.559 -5,11 -5.117,2.574 -13.992,4.266 -14,16 l 1,125 c 0,0 54.383,36.15 62,44 0.414,-5.31 10.98,-45.04 15,-56 6.125,-15.42 20.074,-76.801 20,-137 0.074,-8.871 -0.348,-12.676 -2,-15 -0.883,-2.746 -0.461,-18.809 7,-24 6.91,-5.801 1.418,-5.375 0,-7 -1.121,-1.758 -18.875,-14.02 -19,-47 6.043,-0.41 20.418,-2.102 64,17 -10.781,14.289 -9.316,30.918 -1,45 3.492,6.914 1.227,8.801 -2,12 -2.539,4.211 -8.457,13.512 -8,30 -0.457,17.328 -3,106 -3,106 0,0 0.852,14.47 5,23 15.332,32.38 26.574,56.87 35,91 1.434,5.3 3.121,10.8 17,10 46.645,-4.87 134.42,8.73 158,16 6.508,2.13 20.457,5.93 26,-5 4.602,-11.05 6.715,-21.62 16,-31 9.31,-9.21 60.46,-61.21 67,-66 6.14,-5.35 12.06,-12.12 5,-22 -6.46,-10.41 -14.92,-23.09 -19,-36 -3.53,-12.45 -5.22,-17.1 -9,-22 -3.83,-4.398 -25.81,-42.023 -28,-45 -2.88,-3.785 -11.76,-19.004 -2,-35 -1.73,-3.871 -15.68,-31.77 -15,-58 6.51,0.445 28.07,2.559 53,27 -0.41,3.883 0.01,24.172 0,27 0.85,2.242 -0.41,6.047 3,8 4.19,2.273 4.19,3.965 5,9 8.11,30.629 38.89,94.57 65,117 5.63,4.78 19.58,15.35 4,31 -15.7,16.47 -41.91,53.67 -51,82 43.04,-49.55 37.99,-40.93 87,-79 21.14,-15.57 28.62,-30.46 26,-58 -1.19,-13.07 -3.3,-26.6 -3,-33 0.54,-7.121 -0.3,-24.875 -2,-32 -1.68,-6.402 -9.29,-55.438 -6,-64 3.47,-9.191 0.09,-17.645 -2,-21 -2.14,-2.562 -16.51,-21.586 -17,-41 4.72,0.395 44.03,7.578 63,19 -0.79,3.797 -6.71,20.281 6,32 6.54,6.871 8.39,7.09 6,21 -7.56,42.434 -4.46,111.5 7,155 3.03,12.65 2.19,21.95 -7,31 -9.41,8.7 -58.87,57.31 -59,81 0.13,16.89 4,21 4,21 l 72,-9 c 0,0 22.2,-52.18 47,-52 24.23,-0.18 25.5,29.84 26,41 l 80,-9 v -57 h 57 c 0,0 53.57,56.11 136,56 82.42,0.11 134,-56 134,-56 h 229 c 0,0 55.48,57.37 137,57 80.8,0.37 134,-57 134,-57 h 54 l 82,268 c 0,0 -127.63,6.09 -188,140 -12.4,26.46 -98.57,138.87 -239,139 -142.12,-0.13 -223.33,-101.48 -235,-125 -3.87,-7.57 -28.11,-63.37 -78,-63 -18.31,-0.37 -31.84,2.45 -46,13 -1.05,6.35 -6.69,38.48 -6,55 0.44,17.3 12.27,20.11 19,23 6.8,2.75 25.4,8.39 17,37 -14.71,48.44 -47.11,96.53 -69,112 -5.45,3.67 -11.19,11.41 -6,19"
         inkscape:connector-curvature="0"
         id="path20" /><path
         d="m 1254.2,1238.2 c 0,0 9.25,93.85 9,114 0.25,20.43 -1.44,133.72 -49,134 -21.51,-0.28 -29,-13 -29,-13 0,0 93.65,-102.99 21,-229 l 48,-6"
         inkscape:connector-curvature="0"
         id="path22"
         style="fill:#ffffff" /><path
         d="m 1601.2,1129.2 c 84.95,0.36 153.43,-68.11 153,-153 0.43,-84.043 -68.05,-152.52 -153,-153 -83.98,0.484 -152.45,68.957 -152,153 -0.45,84.89 68.02,153.36 152,153"
         inkscape:connector-curvature="0"
         id="path24" /><path
         d="m 1601.2,1096.2 c 66.46,-0.12 119.95,-53.61 120,-120 -0.05,-65.555 -53.54,-119.04 -120,-119 -65.49,-0.039 -118.97,53.445 -119,119 0.03,66.39 53.51,119.88 119,120"
         inkscape:connector-curvature="0"
         id="path26"
         style="fill:#ffffff" /><path
         d="m 2100.2,1096.2 c 65.63,-0.12 119.11,-53.61 119,-120 0.11,-65.555 -53.37,-119.04 -119,-119 -66.32,-0.039 -119.81,53.445 -120,119 0.19,66.39 53.68,119.88 120,120"
         inkscape:connector-curvature="0"
         id="path28"
         style="fill:#ffffff" /><path
         d="m 1601.2,1014.2 c 21.38,0.26 38.32,-16.684 38,-38 0.32,-20.477 -16.62,-37.414 -38,-37 -20.41,-0.414 -37.35,16.523 -37,37 -0.35,21.316 16.59,38.26 37,38"
         inkscape:connector-curvature="0"
         id="path30" /><path
         d="m 2100.2,1014.2 c 20.55,0.26 37.49,-16.684 37,-38 0.49,-20.477 -16.45,-37.414 -37,-37 -21.24,-0.414 -38.18,16.523 -38,37 -0.18,21.316 16.76,38.26 38,38"
         inkscape:connector-curvature="0"
         id="path32" /></g></g></svg>